<svg width="240" height="331" viewBox="0 0 240 331" fill="none" xmlns="http://www.w3.org/2000/svg">
<path d="M76.15 170.33L90.06 255.22C90.1621 255.841 90.4817 256.405 90.9617 256.812C91.4418 257.219 92.0508 257.441 92.68 257.44C93.0521 257.439 93.42 257.36 93.7596 257.208C94.0991 257.056 94.4029 256.834 94.651 256.557C94.8991 256.279 95.086 255.953 95.1995 255.599C95.3131 255.244 95.3507 254.87 95.31 254.5L85.55 166.92L76.15 170.33Z" fill="#263238"/>
<path d="M124.17 141.78L138.09 226.67C138.19 227.29 138.508 227.854 138.986 228.261C139.464 228.668 140.072 228.891 140.7 228.89C141.073 228.89 141.442 228.81 141.782 228.658C142.123 228.505 142.427 228.282 142.675 228.003C142.923 227.725 143.11 227.397 143.223 227.042C143.336 226.686 143.372 226.311 143.33 225.94L133.57 138.37L124.17 141.78Z" fill="#263238"/>
<path d="M54.8 150.48L41.07 223.63C40.9781 224.143 40.7079 224.607 40.3072 224.94C39.9065 225.273 39.401 225.453 38.88 225.45C38.5594 225.449 38.2427 225.379 37.9514 225.245C37.6601 225.111 37.4009 224.916 37.1914 224.674C36.9819 224.431 36.827 224.146 36.737 223.839C36.647 223.531 36.6242 223.207 36.67 222.89L46.81 155.09L54.8 150.48Z" fill="#263238"/>
<path d="M103.36 123.19L89.71 195.89C89.6181 196.403 89.3479 196.867 88.9472 197.2C88.5465 197.533 88.041 197.713 87.52 197.71C87.2004 197.709 86.8847 197.639 86.5942 197.506C86.3036 197.373 86.045 197.179 85.8357 196.937C85.6263 196.696 85.4711 196.412 85.3805 196.105C85.2898 195.799 85.2658 195.477 85.31 195.16L95.37 127.79L103.36 123.19Z" fill="#263238"/>
<path d="M99.4 117.65C96.2524 116.257 93.5305 114.054 91.512 111.267C89.4935 108.479 88.2506 105.205 87.91 101.78C85.7 79.5 77.85 33.6 51.27 48.88C18.45 67.74 30.2 122.51 34.97 140.07C36.0304 144.026 38.0975 147.64 40.97 150.56C46.9 156.56 59.17 166.82 80.05 175.56C82.6113 176.63 85.46 176.799 88.13 176.04C98.5 173.09 125.59 164.04 139.13 146.74C139.896 145.759 140.245 144.516 140.098 143.279C139.952 142.043 139.324 140.915 138.35 140.14C132.88 135.8 120.51 127.07 99.4 117.65Z" fill="#457B9D"/>
<path opacity="0.5" d="M99.4 117.65C96.2524 116.257 93.5305 114.054 91.512 111.267C89.4935 108.479 88.2506 105.205 87.91 101.78C85.7 79.5 77.85 33.6 51.27 48.88C18.45 67.74 30.2 122.51 34.97 140.07C36.0304 144.026 38.0975 147.64 40.97 150.56C46.9 156.56 59.17 166.82 80.05 175.56C82.6113 176.63 85.46 176.799 88.13 176.04C98.5 173.09 125.59 164.04 139.13 146.74C139.896 145.759 140.245 144.516 140.098 143.279C139.952 142.043 139.324 140.915 138.35 140.14C132.88 135.8 120.51 127.07 99.4 117.65Z" fill="black"/>
<path d="M140.11 143.61C140.168 144.743 139.813 145.859 139.11 146.75C138.39 147.68 137.62 148.57 136.83 149.45C136.39 149.93 135.95 150.4 135.49 150.86C135.04 151.32 134.58 151.77 134.11 152.22L132.69 153.54C132.2 153.97 131.69 154.4 131.2 154.82C123.53 161.25 114.2 166.15 105.93 169.68L104.39 170.33L104.23 170.39L102.81 170.97L102.56 171.06L101.24 171.58L100.94 171.7L99.71 172.16L99.35 172.29L98.21 172.71L97.8 172.86L96.75 173.23L96.32 173.38L95.32 173.71L94.85 173.87L93.97 174.16L93.47 174.33L92.68 174.58L92.14 174.75L91.46 174.97L90.88 175.14L90.31 175.32L89.6 175.53L89.24 175.63C88.9 175.74 88.56 175.83 88.24 175.92C85.57 176.679 82.7213 176.51 80.16 175.44C59.28 166.69 47.01 156.44 41.08 150.44C38.2075 147.52 36.1404 143.906 35.08 139.95C30.31 122.39 18.56 67.62 51.38 48.76C51.96 48.4333 52.53 48.1333 53.09 47.86L53.46 47.68C54.02 47.42 54.56 47.18 55.1 46.97L55.26 46.91C55.77 46.72 56.26 46.55 56.78 46.41L57.01 46.34C57.55 46.19 58.08 46.07 58.6 45.97H58.74C59.7758 45.7848 60.8285 45.711 61.88 45.75H61.94C62.9543 45.7878 63.9609 45.9422 64.94 46.21C59.7 43.9 53.3 44 46.94 47.65C14.12 66.51 25.87 121.28 30.64 138.84L31.45 141.84C33.0775 147.935 36.6785 153.319 41.69 157.15L50.21 163.66C59.3612 170.637 69.3737 176.404 80 180.82C82.5683 181.902 85.4283 182.078 88.11 181.32C98.47 178.37 125.58 169.32 139.11 152.02C139.694 151.284 140.043 150.388 140.11 149.45V143.6V143.61Z" fill="#457B9D"/>
<path opacity="0.6" d="M140.11 143.61C140.168 144.743 139.813 145.859 139.11 146.75C138.39 147.68 137.62 148.57 136.83 149.45C136.39 149.93 135.95 150.4 135.49 150.86C135.04 151.32 134.58 151.77 134.11 152.22L132.69 153.54C132.2 153.97 131.69 154.4 131.2 154.82C123.53 161.25 114.2 166.15 105.93 169.68L104.39 170.33L104.23 170.39L102.81 170.97L102.56 171.06L101.24 171.58L100.94 171.7L99.71 172.16L99.35 172.29L98.21 172.71L97.8 172.86L96.75 173.23L96.32 173.38L95.32 173.71L94.85 173.87L93.97 174.16L93.47 174.33L92.68 174.58L92.14 174.75L91.46 174.97L90.88 175.14L90.31 175.32L89.6 175.53L89.24 175.63C88.9 175.74 88.56 175.83 88.24 175.92C85.57 176.679 82.7213 176.51 80.16 175.44C59.28 166.69 47.01 156.44 41.08 150.44C38.2075 147.52 36.1404 143.906 35.08 139.95C30.31 122.39 18.56 67.62 51.38 48.76C51.96 48.4333 52.53 48.1333 53.09 47.86L53.46 47.68C54.02 47.42 54.56 47.18 55.1 46.97L55.26 46.91C55.77 46.72 56.26 46.55 56.78 46.41L57.01 46.34C57.55 46.19 58.08 46.07 58.6 45.97H58.74C59.7758 45.7848 60.8285 45.711 61.88 45.75H61.94C62.9543 45.7878 63.9609 45.9422 64.94 46.21C59.7 43.9 53.3 44 46.94 47.65C14.12 66.51 25.87 121.28 30.64 138.84L31.45 141.84C33.0775 147.935 36.6785 153.319 41.69 157.15L50.21 163.66C59.3612 170.637 69.3737 176.404 80 180.82C82.5683 181.902 85.4283 182.078 88.11 181.32C98.47 178.37 125.58 169.32 139.11 152.02C139.694 151.284 140.043 150.388 140.11 149.45V143.6V143.61Z" fill="black"/>
<path d="M158.21 206.28C155.97 191.99 153.1 169.15 151.46 155.65C151.353 154.763 151.203 153.883 151.01 153.01C150.147 149.284 148.529 145.774 146.257 142.697C143.985 139.62 141.107 137.042 137.8 135.12L104.14 115.12L81.29 103.12C81.29 103.12 75.21 120.74 82.29 131.52C88.17 140.52 114.13 151.6 121.85 155.35C129.57 159.1 129.73 160.11 129.57 165.12C129.41 170.13 129.4 176.51 138.88 196.49C141.61 202.23 143.51 206.49 144.83 209.82C149.562 210.186 154.278 208.938 158.21 206.28Z" fill="#457B9D"/>
<path opacity="0.7" d="M158.21 206.28C155.97 191.99 153.1 169.15 151.46 155.65C151.299 154.324 151.045 153.011 150.7 151.72C148.731 144.737 144.123 138.795 137.85 135.15L104.14 115.08L81.29 103.08C81.29 103.08 75.21 120.7 82.29 131.48C88.17 140.48 114.13 151.56 121.85 155.31C129.57 159.06 129.73 160.07 129.57 165.08C129.41 170.09 129.4 176.47 138.88 196.45C141.61 202.19 143.51 206.45 144.83 209.78C149.557 210.158 154.273 208.924 158.21 206.28Z" fill="black"/>
<path d="M147.8 221.41C147.786 222.003 147.927 222.589 148.21 223.11C149.552 225.377 151.262 227.405 153.27 229.11C157.81 233.2 172.84 249.21 178.12 239.27C178.12 239.27 162.59 224.4 160.54 218.27C159.524 214.32 158.746 210.313 158.21 206.27C154.265 208.911 149.542 210.138 144.81 209.75C147.72 217 147.85 219.35 147.8 221.41Z" fill="#FFA8A7"/>
<path d="M164 220.43L163.57 219.14C163.397 218.666 163.052 218.275 162.603 218.045C162.154 217.816 161.635 217.764 161.15 217.9L154.86 219.84C154.465 219.962 154.12 220.208 153.875 220.541C153.63 220.874 153.499 221.277 153.5 221.69V222.32C153.497 222.618 153.377 222.903 153.166 223.113C152.954 223.322 152.668 223.44 152.37 223.44C151.038 223.441 149.747 222.978 148.72 222.13L147.84 221.41V219.21C147.273 219.58 146.813 220.093 146.506 220.696C146.198 221.3 146.055 221.974 146.09 222.65C146.17 224.14 146.24 225.96 146.18 226.65C146.08 227.97 144.85 233.47 146.32 235.1C147.79 236.73 151.09 236.92 155.17 236.48C159.25 236.04 163.71 240.05 167.49 241.54C171.27 243.03 186.93 246.23 186.89 236.22C186.89 233.67 184.36 232.63 181.89 231.73C179.42 230.83 170.48 227.68 168.19 225.79C167.27 225.024 166.417 224.181 165.64 223.27C164.911 222.441 164.354 221.476 164 220.43Z" fill="#455A64"/>
<path d="M167.45 241.57C163.67 240.08 159.21 236.07 155.13 236.51C151.05 236.95 147.75 236.76 146.28 235.13C145.809 234.453 145.564 233.645 145.58 232.82C145.51 234.36 145.63 235.82 146.28 236.56C147.75 238.19 151.05 238.38 155.13 237.94C159.21 237.5 163.67 241.52 167.45 243C171.23 244.48 186.89 247.69 186.85 237.68C186.84 237.535 186.82 237.392 186.79 237.25C185.81 246 171.1 243 167.45 241.57Z" fill="#263238"/>
<path d="M127.64 223.62C125.39 209.34 122.53 186.5 120.88 172.99C120.018 165.891 116.512 159.378 111.06 154.75L70.67 120.41L49.08 120C49.08 120 44.63 138 51.69 148.77C57.58 157.77 83.53 168.86 91.25 172.6C98.97 176.34 99.13 177.37 98.97 182.37C98.81 187.37 98.8 193.76 108.29 213.74C111.01 219.49 112.91 223.74 114.23 227.07C118.961 227.464 123.687 226.249 127.64 223.62Z" fill="#457B9D"/>
<path opacity="0.7" d="M127.64 223.62C125.39 209.34 122.53 186.5 120.88 172.99C120.018 165.891 116.512 159.378 111.06 154.75L70.67 120.41L49.08 120C49.08 120 44.63 138 51.69 148.77C57.58 157.77 83.53 168.86 91.25 172.6C98.97 176.34 99.13 177.37 98.97 182.37C98.81 187.37 98.8 193.76 108.29 213.74C111.01 219.49 112.91 223.74 114.23 227.07C118.961 227.464 123.687 226.249 127.64 223.62Z" fill="black"/>
<path d="M117.21 237.46C117.21 238.06 116.8 239.83 117.63 240.46C118.69 241.25 119.7 243.78 122.7 246.46C127.23 250.55 132.02 241.74 129.96 235.63C128.949 231.68 128.175 227.672 127.64 223.63C123.69 226.269 118.965 227.496 114.23 227.11C117.15 234.33 117.27 235.41 117.21 237.46Z" fill="#FFA8A7"/>
<path d="M90.52 45.52C93.6099 45.0293 96.7736 45.6502 99.4487 47.2725C102.124 48.8948 104.137 51.4132 105.13 54.38C106.556 58.6641 107.473 63.1014 107.86 67.6C109.03 81.45 109.35 88.37 109.35 88.37L123.26 94.68C123.26 94.68 115.75 95.04 116.26 105.68L98.93 101.31L90.52 45.52Z" fill="#FFA8A7"/>
<path d="M109.86 80C107.81 65 107 57.15 105.24 53.43C104.032 50.6492 101.923 48.3564 99.2523 46.9213C96.5817 45.4862 93.5055 44.9926 90.52 45.52L95.76 86.72L96.43 86.66C101.07 86.2023 105.441 84.2674 108.9 81.14L109.86 80Z" fill="#457B9D"/>
<path opacity="0.2" d="M109.86 80C107.81 65 107 57.15 105.24 53.43C104.032 50.6492 101.923 48.3564 99.2523 46.9213C96.5817 45.4862 93.5055 44.9926 90.52 45.52L95.76 86.72L96.43 86.66C101.07 86.2023 105.441 84.2674 108.9 81.14L109.86 80Z" fill="black"/>
<path d="M109.35 88.37C107.787 88.8504 106.373 89.7211 105.24 90.9C105.24 90.9 106.92 87.71 109.24 86.72L109.35 88.37Z" fill="#F28F8F"/>
<path d="M57.1 57.67L72.66 50.13L85.48 45.7C85.48 45.7 95.76 42.43 98.38 56.12C100.55 67.37 100.83 110.12 100.83 110.12L100.6 114.79C100.6 114.79 94.67 131.41 73.48 132.79C52.29 134.17 48.16 125.23 48.16 125.23C48.16 125.23 46 68.66 57.1 57.67Z" fill="#457B9D"/>
<path d="M106.13 12C106.13 12 110.94 24.33 104.3 29.76C97.66 35.19 100 13.33 100 13.33L106.13 12Z" fill="#263238"/>
<path d="M147.81 82.49L0 167.83V186.32V276.17C0.00701763 276.526 0.116317 276.873 0.31488 277.169C0.513444 277.465 0.792902 277.698 1.12 277.84C1.96521 278.272 2.90085 278.497 3.85001 278.497C4.79917 278.497 5.73478 278.272 6.58 277.84C6.90522 277.697 7.1826 277.463 7.37932 277.167C7.57603 276.871 7.68385 276.525 7.69 276.17V190.77L87.83 237V327.73C87.8389 328.085 87.9491 328.429 88.1475 328.724C88.346 329.018 88.6244 329.249 88.95 329.39C89.7952 329.822 90.7308 330.047 91.68 330.047C92.6292 330.047 93.5648 329.822 94.41 329.39C94.7356 329.249 95.014 329.018 95.2125 328.724C95.4109 328.429 95.5211 328.085 95.53 327.73V237L231.76 158.35V244.35C231.771 244.706 231.885 245.05 232.087 245.343C232.289 245.636 232.571 245.864 232.9 246C233.745 246.432 234.681 246.657 235.63 246.657C236.579 246.657 237.515 246.432 238.36 246C238.686 245.86 238.965 245.629 239.164 245.335C239.363 245.04 239.472 244.695 239.48 244.34V135.43L147.81 82.49Z" fill="#455A64"/>
<path d="M94.41 329.41C93.5648 329.842 92.6291 330.067 91.68 330.067C90.7308 330.067 89.7952 329.842 88.95 329.41C87.44 328.54 87.44 327.13 88.95 326.26C89.7952 325.828 90.7308 325.603 91.68 325.603C92.6291 325.603 93.5648 325.828 94.41 326.26C95.92 327.13 95.92 328.54 94.41 329.41Z" fill="#455A64"/>
<path d="M95.55 234.79H87.83V327.75H95.55V234.79Z" fill="#37474F"/>
<path d="M3.87001 278.5C6.00183 278.5 7.73001 277.502 7.73001 276.27C7.73001 275.038 6.00183 274.04 3.87001 274.04C1.73819 274.04 0.0100098 275.038 0.0100098 276.27C0.0100098 277.502 1.73819 278.5 3.87001 278.5Z" fill="#455A64"/>
<path d="M7.73001 183.23H0.0100098V276.19H7.73001V183.23Z" fill="#263238"/>
<path d="M238.36 246C237.515 246.432 236.579 246.657 235.63 246.657C234.681 246.657 233.745 246.432 232.9 246C231.39 245.13 231.39 243.72 232.9 242.85C233.745 242.418 234.681 242.193 235.63 242.193C236.579 242.193 237.515 242.418 238.36 242.85C239.87 243.73 239.87 245.14 238.36 246Z" fill="#455A64"/>
<path d="M239.5 151.39H231.78V244.35H239.5V151.39Z" fill="#37474F"/>
<path d="M144 175.66C143.241 176.045 142.401 176.245 141.55 176.245C140.699 176.245 139.859 176.045 139.1 175.66C137.75 174.88 137.75 173.66 139.1 172.84C139.858 172.45 140.698 172.247 141.55 172.247C142.402 172.247 143.242 172.45 144 172.84C145.31 173.62 145.31 174.88 144 175.66Z" fill="#455A64"/>
<path d="M144.98 96.6H138.05V174.18H144.98V96.6Z" fill="#455A64"/>
<path d="M0 167.83V186.32L91.69 239.26V220.76L0 167.83Z" fill="#263238"/>
<path d="M239.5 135.43L91.69 220.76V239.26L239.5 153.92V135.43Z" fill="#37474F"/>
<path d="M147.81 82.49L0 167.83L91.69 220.76L239.5 135.43L147.81 82.49Z" fill="#455A64"/>
<path d="M73.66 140.08L107.28 159.49L163.17 127.16L129.56 107.36L73.66 140.08Z" fill="#EBEBEB"/>
<path d="M103.66 134.55L116.27 127.27L108.37 122.71L95.76 129.99L103.66 134.55Z" fill="#E0E0E0"/>
<path d="M108.71 154.64L91.72 144.64L124.92 124.54L108.71 154.64Z" fill="#E0E0E0"/>
<path d="M118.22 92.28L131.67 98.59C135.688 99.6038 139.651 100.829 143.54 102.26C143.54 102.26 152.9 106.08 153.33 108.59C153.76 111.1 146.33 117.15 139.76 114.21C138.043 113.29 136.205 112.617 134.3 112.21C132.55 112.02 127.3 111.21 123.55 107.6L107.86 103.52C107.86 103.52 107.08 93.84 118.22 92.28Z" fill="#FFA8A7"/>
<path d="M126.93 111C128.48 112.67 132.93 116.88 133.93 118.1C134.93 119.32 137.19 116.19 133.18 111.52C129.709 110.249 126.444 108.473 123.49 106.25C124.514 107.919 125.664 109.507 126.93 111Z" fill="#FFA8A7"/>
<path d="M88.62 30.81H72.66V50.13H88.62V30.81Z" fill="#FFA8A7"/>
<path d="M88.63 50.13C85.3748 48.915 82.3999 47.0522 79.8852 44.6545C77.3706 42.2567 75.3685 39.3737 74 36.18V30.81H88.67L88.63 50.13Z" fill="#F28F8F"/>
<path d="M94 5.30001C94 5.30001 108.52 7.05001 105.19 31.86C103.65 43.33 100.58 49.13 91.74 48.15C81.74 47.03 67.87 39.25 70.02 19.59C72.17 -0.0699959 94 5.30001 94 5.30001Z" fill="#FFA8A7"/>
<path d="M94.81 27.42L94.29 35.99L99.4 34.76L94.81 27.42Z" fill="#F28F8F"/>
<path d="M87.21 26.65C87.1889 26.9956 87.2707 27.3398 87.4452 27.6389C87.6197 27.938 87.879 28.1786 88.1903 28.3302C88.5016 28.4819 88.8509 28.5378 89.194 28.4908C89.5371 28.4439 89.8585 28.2962 90.1176 28.0665C90.3767 27.8368 90.5619 27.5354 90.6496 27.2004C90.7374 26.8654 90.7238 26.512 90.6105 26.1847C90.4973 25.8575 90.2895 25.5712 90.0135 25.3621C89.7375 25.153 89.4057 25.0304 89.06 25.01C88.5973 24.9827 88.1427 25.14 87.7959 25.4474C87.449 25.7549 87.2383 26.1874 87.21 26.65Z" fill="#263238"/>
<path d="M98.76 26.14C98.739 26.4852 98.8207 26.8289 98.9949 27.1276C99.169 27.4264 99.4278 27.6669 99.7385 27.8187C100.049 27.9705 100.398 28.0269 100.741 27.9806C101.083 27.9344 101.405 27.7877 101.664 27.559C101.924 27.3303 102.109 27.0298 102.198 26.6956C102.287 26.3613 102.275 26.0083 102.163 25.681C102.051 25.3537 101.845 25.0669 101.57 24.8567C101.296 24.6465 100.965 24.5224 100.62 24.5C100.39 24.4851 100.159 24.5157 99.9415 24.5902C99.7234 24.6646 99.5222 24.7813 99.3494 24.9337C99.1766 25.0861 99.0356 25.2711 98.9344 25.4781C98.8333 25.6851 98.774 25.91 98.76 26.14Z" fill="#263238"/>
<path d="M102.86 22.74L99.57 20.5C99.57 20.5 100.96 19.22 102.22 20.12C102.578 20.4415 102.831 20.8636 102.945 21.3311C103.059 21.7986 103.029 22.2896 102.86 22.74Z" fill="#263238"/>
<path d="M88.42 22.35L84.87 24.13C84.87 24.13 84.43 22.29 85.82 21.64C86.2744 21.4817 86.766 21.4648 87.2302 21.5915C87.6943 21.7183 88.1092 21.9827 88.42 22.35Z" fill="#263238"/>
<path d="M94.54 39.47C92.5416 39.4895 90.5944 38.8381 89.01 37.62C89.01 37.62 88.45 40.56 90.89 41.27C93.33 41.98 94.54 39.47 94.54 39.47Z" fill="#F28F8F"/>
<path d="M72.49 27.22C72.49 27.22 74.72 31.87 76.1 31.71C77.48 31.55 76.1 13.9 78.96 13.79C81.82 13.68 95.32 20.38 107.25 11.73C111.84 8.41001 112.75 -0.069986 110 0.730014C107.25 1.53001 103.54 3.94001 98.53 3.60001C93.52 3.26001 75.98 -4.87999 71.63 6.60001C71.63 6.60001 61.93 5.81002 65.57 25.07C66.48 29.86 69.34 41.72 72.66 42.89L72.49 27.22Z" fill="#263238"/>
<path d="M73.28 31.46C73.3351 30.0055 73.0653 28.557 72.49 27.22C72.2021 26.3968 71.6811 25.675 70.9905 25.1424C70.2999 24.6098 69.4694 24.2893 68.6 24.22C64.12 24.1 63.51 28.42 63.6 29.95C63.76 33.95 67.03 38.35 73.11 38.52L73.28 31.46Z" fill="#FFA8A7"/>
<path d="M74.66 117.91L86.1 127C88.0561 127.185 89.9951 127.519 91.9 128C94.09 128.65 99.83 130.76 101.35 131.09C102.87 131.42 100.91 134.09 96.93 133.09C96.93 133.09 105.27 138.8 105.16 141.34C105.05 143.88 96.49 148.22 90.71 143.96C89.2206 142.715 87.5688 141.679 85.8 140.88C84.12 140.33 79.19 138.42 76.26 134.1L66.26 128.89C66.26 128.89 63.44 117.08 74.66 117.91Z" fill="#FFA8A7"/>
<path d="M62.18 55.21C62.18 55.21 68.85 60.38 64.75 76.45C60.65 92.52 58.46 106.37 58.46 106.37L74.66 117.91C72.4422 118.881 70.5077 120.4 69.0383 122.324C67.5689 124.249 66.6128 126.515 66.26 128.91C66.26 128.91 40.72 118.91 40.2 112.42C39.68 105.93 45.53 78.07 46.42 72.94C47.31 67.81 51.85 57.64 62.18 55.21Z" fill="#FFA8A7"/>
<path d="M58.46 106.37C56.4405 105.974 54.3614 105.994 52.35 106.43C54.2672 105.389 56.4186 104.856 58.6 104.88L58.46 106.37Z" fill="#F28F8F"/>
<path d="M171 90.13L165.15 128.38C165.158 128.403 165.158 128.427 165.15 128.45L107 162.12C106.986 162.127 106.969 162.131 106.953 162.129C106.937 162.128 106.922 162.123 106.908 162.114C106.895 162.104 106.884 162.092 106.878 162.077C106.871 162.062 106.868 162.046 106.87 162.03L112.54 124.93C112.66 124.139 112.952 123.384 113.394 122.717C113.836 122.051 114.418 121.489 115.1 121.07L168.36 88.41C168.639 88.2267 168.966 88.1288 169.301 88.1283C169.635 88.1278 169.962 88.2247 170.242 88.4072C170.522 88.5897 170.743 88.8498 170.878 89.1557C171.012 89.4617 171.055 89.8003 171 90.13Z" fill="#FAFAFA"/>
<path d="M107 162.12L76 144.12C75.2855 143.705 74.6923 143.11 74.2799 142.394C73.8675 141.678 73.6503 140.866 73.65 140.04L107.27 159.45L107 162.12Z" fill="#E0E0E0"/>
<path d="M137.37 127C137.37 129.74 139.29 130.84 141.65 129.48C142.898 128.668 143.937 127.572 144.682 126.283C145.428 124.994 145.859 123.547 145.94 122.06C145.94 119.32 144.02 118.22 141.65 119.58C140.405 120.395 139.369 121.491 138.625 122.78C137.882 124.069 137.452 125.514 137.37 127Z" fill="#E0E0E0"/>
<path d="M73.17 12.21C73.17 12.21 70.53 8.31001 72.17 7.05001C73.81 5.79001 75 9.80001 73.17 12.21Z" fill="#263238"/>
<path d="M73.61 13C73.61 13 68.95 12.42 69.06 10.38C69.17 8.34 73 10.06 73.61 13Z" fill="#263238"/>
<path d="M72.66 50.13C72.66 50.13 76.09 59.13 83.99 58.01C91.89 56.89 88.63 50.13 88.63 50.13H72.66Z" fill="#FFA8A7"/>
<path d="M62.18 55.21C62.18 55.21 67.38 57.7 66.58 68.16C65.78 78.62 61.65 99.7 61.65 99.7C61.65 99.7 43.04 107.24 41.26 96.61C40.81 93.86 45.5 68.43 49.51 63.05C50.9821 60.9545 52.864 59.1794 55.0417 57.8318C57.2194 56.4843 59.6478 55.5924 62.18 55.21Z" fill="#457B9D"/>
<path opacity="0.2" d="M62.18 55.21C62.18 55.21 67.38 57.7 66.58 68.16C65.78 78.62 61.65 99.7 61.65 99.7C61.65 99.7 43.04 107.24 41.26 96.61C40.81 93.86 45.5 68.43 49.51 63.05C50.9821 60.9545 52.864 59.1794 55.0417 57.8318C57.2194 56.4843 59.6478 55.5924 62.18 55.21Z" fill="black"/>
<path d="M117.63 238C118.328 239.058 119.399 239.815 120.63 240.12C121.76 240.3 119.48 237.37 122.2 236.19C124.92 235.01 131.15 233.4 131.71 235.74L132.4 238.66C133.05 241.42 134.369 243.979 136.24 246.11C138.056 248.308 140.123 250.285 142.4 252C145.96 254.29 151.81 259.84 144.3 264.57C136.79 269.3 127.57 265.3 125.76 259.93C123.95 254.56 122.04 253 121.08 252.11C119.057 250.691 117.616 248.588 117.02 246.19C116.532 243.814 116.198 241.409 116.02 238.99C115.982 238.502 116.078 238.012 116.296 237.574C116.514 237.135 116.848 236.764 117.26 236.5L117.63 238Z" fill="#455A64"/>
<path d="M144.34 264.55C136.83 269.27 127.61 265.28 125.8 259.91C123.99 254.54 122.08 252.98 121.12 252.09C119.425 250.864 118.122 249.172 117.37 247.22C117.37 247.36 117.37 247.52 117.37 247.66C117.66 252.31 120.51 253.4 121.47 254.3C122.43 255.2 124.01 256.66 125.82 262.04C127.63 267.42 137.15 270.76 144.65 266.04C148.3 263.75 148.79 261.26 147.93 259.04C148.11 260.85 147.19 262.76 144.34 264.55Z" fill="#263238"/>
<path d="M108.26 193.16L84.34 207L54.14 189.56L78.14 175.72C78.4544 175.543 78.8092 175.45 79.17 175.45C79.5308 175.45 79.8856 175.543 80.2 175.72L108.29 191.94C108.394 192.006 108.48 192.097 108.538 192.205C108.596 192.314 108.625 192.436 108.622 192.559C108.619 192.682 108.584 192.802 108.52 192.907C108.457 193.013 108.367 193.1 108.26 193.16Z" fill="#457B9D"/>
<path opacity="0.7" d="M108.26 193.16L84.34 207L54.14 189.56L78.14 175.72C78.4544 175.543 78.8092 175.45 79.17 175.45C79.5308 175.45 79.8856 175.543 80.2 175.72L108.29 191.94C108.394 192.006 108.48 192.097 108.538 192.205C108.596 192.314 108.625 192.436 108.622 192.559C108.619 192.682 108.584 192.802 108.52 192.907C108.457 193.013 108.367 193.1 108.26 193.16Z" fill="black"/>
<path d="M106.6 192.66L84.34 205.51L56.23 189.29L78.54 176.41C78.829 176.238 79.1589 176.148 79.495 176.148C79.8311 176.148 80.161 176.238 80.45 176.41L106.6 191.5C106.702 191.559 106.786 191.643 106.845 191.745C106.904 191.847 106.935 191.962 106.935 192.08C106.935 192.198 106.904 192.313 106.845 192.415C106.786 192.517 106.702 192.601 106.6 192.66Z" fill="white"/>
<path d="M84.34 205.51V203L106.94 189.96V192.09L84.34 205.51Z" fill="white"/>
<path d="M84.34 205.51V203L56.23 186.78V189.29L84.34 205.51Z" fill="#E0E0E0"/>
<path d="M108.26 189.19L84.34 203L54.14 185.57L78.14 171.73C78.4544 171.553 78.8092 171.46 79.17 171.46C79.5308 171.46 79.8856 171.553 80.2 171.73L108.26 188C108.359 188.064 108.44 188.153 108.497 188.257C108.553 188.36 108.583 188.477 108.583 188.595C108.583 188.713 108.553 188.83 108.497 188.933C108.44 189.037 108.359 189.126 108.26 189.19Z" fill="#457B9D"/>
<path opacity="0.5" d="M108.26 189.19L84.34 203L54.14 185.57L78.14 171.73C78.4544 171.553 78.8092 171.46 79.17 171.46C79.5308 171.46 79.8856 171.553 80.2 171.73L108.26 188C108.359 188.064 108.44 188.153 108.497 188.257C108.553 188.36 108.583 188.477 108.583 188.595C108.583 188.713 108.553 188.83 108.497 188.933C108.44 189.037 108.359 189.126 108.26 189.19Z" fill="black"/>
<path d="M81.21 205.17C81.1417 205.204 81.0664 205.222 80.99 205.222C80.9136 205.222 80.8383 205.204 80.77 205.17C80.6831 205.123 80.6102 205.054 80.5592 204.97C80.5082 204.885 80.4808 204.789 80.48 204.69V202.4C80.4849 201.888 80.6207 201.386 80.8745 200.941C81.1283 200.497 81.4917 200.124 81.93 199.86L82.02 199.8C82.0614 199.777 82.108 199.766 82.1552 199.767C82.2023 199.768 82.2485 199.781 82.2889 199.805C82.3294 199.829 82.3628 199.864 82.3858 199.905C82.4088 199.946 82.4206 199.993 82.42 200.04C82.42 200.165 82.4695 200.284 82.5577 200.372C82.6458 200.46 82.7653 200.51 82.89 200.51C83.0147 200.51 83.1342 200.46 83.2223 200.372C83.3105 200.284 83.36 200.165 83.36 200.04C83.362 199.826 83.3063 199.616 83.199 199.431C83.0917 199.247 82.9366 199.094 82.75 198.99C82.5675 198.88 82.3583 198.821 82.145 198.821C81.9317 198.821 81.7225 198.88 81.54 198.99L81.45 199.04C80.8686 199.385 80.3868 199.875 80.052 200.462C79.7171 201.05 79.5407 201.714 79.54 202.39V204.66C79.54 204.928 79.6125 205.192 79.7498 205.422C79.887 205.653 80.0841 205.842 80.32 205.97C80.5353 206.085 80.7761 206.143 81.02 206.14C81.3155 206.142 81.6048 206.055 81.85 205.89C81.9402 205.829 82.0043 205.736 82.03 205.63L81.21 205.17Z" fill="white"/>
<path d="M76.74 202.59C76.6717 202.624 76.5964 202.642 76.52 202.642C76.4436 202.642 76.3683 202.624 76.3 202.59C76.2131 202.543 76.1403 202.474 76.0892 202.39C76.0382 202.305 76.0108 202.209 76.01 202.11V199.84C76.0132 199.326 76.1482 198.822 76.4021 198.376C76.656 197.929 77.0202 197.555 77.46 197.29H77.55C77.5914 197.267 77.6378 197.255 77.685 197.255C77.7322 197.255 77.7787 197.267 77.82 197.29C77.8596 197.314 77.8923 197.348 77.9151 197.388C77.9378 197.428 77.9498 197.474 77.95 197.52C77.95 197.645 77.9995 197.764 78.0877 197.852C78.1758 197.94 78.2953 197.99 78.42 197.99C78.5446 197.99 78.6642 197.94 78.7523 197.852C78.8405 197.764 78.89 197.645 78.89 197.52C78.8832 197.315 78.8235 197.115 78.7166 196.94C78.6097 196.765 78.4593 196.62 78.28 196.52C78.0975 196.41 77.8883 196.351 77.675 196.351C77.4617 196.351 77.2525 196.41 77.07 196.52L76.98 196.57C76.3986 196.915 75.9168 197.405 75.582 197.992C75.2471 198.58 75.0707 199.244 75.07 199.92V202.19C75.07 202.458 75.1425 202.722 75.2798 202.952C75.417 203.183 75.6141 203.372 75.85 203.5C76.0653 203.615 76.3061 203.673 76.55 203.67C76.8455 203.672 77.1348 203.585 77.38 203.42C77.4702 203.359 77.5343 203.266 77.56 203.16L76.74 202.59Z" fill="white"/>
<path d="M72.27 200C72.2011 200.032 72.126 200.049 72.05 200.049C71.974 200.049 71.8989 200.032 71.83 200C71.7431 199.953 71.6703 199.884 71.6192 199.8C71.5682 199.715 71.5408 199.619 71.54 199.52V197.25C71.5432 196.736 71.6782 196.232 71.9321 195.786C72.186 195.339 72.5502 194.965 72.99 194.7L73.08 194.65C73.1214 194.627 73.1678 194.615 73.215 194.615C73.2622 194.615 73.3087 194.627 73.35 194.65C73.3896 194.674 73.4223 194.708 73.4451 194.748C73.4678 194.788 73.4798 194.834 73.48 194.88C73.48 195.005 73.5295 195.124 73.6177 195.212C73.7058 195.3 73.8253 195.35 73.95 195.35C74.0746 195.35 74.1942 195.3 74.2823 195.212C74.3705 195.124 74.42 195.005 74.42 194.88C74.4132 194.675 74.3535 194.475 74.2466 194.3C74.1397 194.125 73.9893 193.98 73.81 193.88C73.6275 193.77 73.4183 193.711 73.205 193.711C72.9917 193.711 72.7825 193.77 72.6 193.88L72.51 193.93C71.9286 194.275 71.4468 194.765 71.112 195.352C70.7771 195.94 70.6007 196.604 70.6 197.28V199.55C70.6 199.818 70.6725 200.082 70.8098 200.312C70.947 200.543 71.1441 200.732 71.38 200.86C71.5953 200.975 71.8361 201.033 72.08 201.03C72.3755 201.032 72.6648 200.945 72.91 200.78C73.0002 200.719 73.0643 200.626 73.09 200.52L72.27 200Z" fill="white"/>
<path d="M67.8 197.43C67.7311 197.462 67.656 197.479 67.58 197.479C67.504 197.479 67.4289 197.462 67.36 197.43C67.2731 197.383 67.2003 197.314 67.1492 197.23C67.0982 197.145 67.0708 197.049 67.07 196.95V194.68C67.0732 194.166 67.2082 193.662 67.4621 193.216C67.716 192.769 68.0802 192.395 68.52 192.13L68.61 192.08C68.6514 192.057 68.6978 192.045 68.745 192.045C68.7922 192.045 68.8386 192.057 68.88 192.08C68.9196 192.104 68.9523 192.138 68.9751 192.178C68.9978 192.218 69.0098 192.264 69.01 192.31C69.01 192.435 69.0595 192.554 69.1477 192.642C69.2358 192.73 69.3553 192.78 69.48 192.78C69.6046 192.78 69.7242 192.73 69.8123 192.642C69.9005 192.554 69.95 192.435 69.95 192.31C69.9432 192.105 69.8835 191.905 69.7766 191.73C69.6697 191.555 69.5193 191.41 69.34 191.31C69.1575 191.2 68.9483 191.141 68.735 191.141C68.5217 191.141 68.3125 191.2 68.13 191.31L68.04 191.36C67.4586 191.705 66.9768 192.195 66.642 192.782C66.3071 193.37 66.1307 194.034 66.13 194.71V196.98C66.13 197.248 66.2025 197.512 66.3398 197.742C66.477 197.973 66.6741 198.162 66.91 198.29C67.1253 198.405 67.3661 198.463 67.61 198.46C67.9055 198.462 68.1948 198.375 68.44 198.21C68.5301 198.149 68.5943 198.056 68.62 197.95L67.8 197.43Z" fill="white"/>
<path d="M63.33 194.85C63.2611 194.882 63.186 194.899 63.11 194.899C63.034 194.899 62.9589 194.882 62.89 194.85C62.8031 194.803 62.7303 194.734 62.6792 194.65C62.6282 194.565 62.6008 194.469 62.6 194.37V192.1C62.6032 191.586 62.7382 191.082 62.9921 190.636C63.246 190.189 63.6102 189.815 64.05 189.55H64.14C64.1814 189.527 64.2278 189.515 64.275 189.515C64.3222 189.515 64.3686 189.527 64.41 189.55C64.4496 189.574 64.4823 189.608 64.5051 189.648C64.5278 189.688 64.5398 189.734 64.54 189.78C64.54 189.905 64.5895 190.024 64.6777 190.112C64.7658 190.2 64.8853 190.25 65.01 190.25C65.1346 190.25 65.2542 190.2 65.3423 190.112C65.4305 190.024 65.48 189.905 65.48 189.78C65.4732 189.575 65.4135 189.375 65.3066 189.2C65.1997 189.025 65.0493 188.88 64.87 188.78C64.6875 188.67 64.4783 188.611 64.265 188.611C64.0517 188.611 63.8425 188.67 63.66 188.78L63.57 188.83C62.9886 189.175 62.5068 189.665 62.172 190.252C61.8371 190.84 61.6607 191.504 61.66 192.18V194.45C61.66 194.718 61.7325 194.982 61.8698 195.212C62.007 195.443 62.2041 195.632 62.44 195.76C62.657 195.87 62.8966 195.928 63.14 195.93C63.4355 195.932 63.7248 195.845 63.97 195.68C64.0601 195.619 64.1243 195.526 64.15 195.42L63.33 194.85Z" fill="white"/>
<path d="M58.86 192.27C58.7911 192.302 58.716 192.319 58.64 192.319C58.564 192.319 58.4889 192.302 58.42 192.27C58.333 192.223 58.2603 192.154 58.2092 192.07C58.1582 191.985 58.1308 191.889 58.13 191.79V189.5C58.1332 188.986 58.2682 188.482 58.5221 188.036C58.776 187.589 59.1402 187.215 59.58 186.95L59.67 186.9C59.7114 186.877 59.7578 186.865 59.805 186.865C59.8522 186.865 59.8986 186.877 59.94 186.9C59.981 186.922 60.0149 186.956 60.0379 186.996C60.0608 187.037 60.072 187.083 60.07 187.13C60.07 187.255 60.1195 187.374 60.2077 187.462C60.2958 187.55 60.4153 187.6 60.54 187.6C60.6646 187.6 60.7842 187.55 60.8723 187.462C60.9605 187.374 61.01 187.255 61.01 187.13C60.9995 186.922 60.936 186.72 60.8256 186.544C60.7152 186.368 60.5614 186.222 60.379 186.122C60.1966 186.022 59.9916 185.97 59.7835 185.971C59.5754 185.973 59.3711 186.027 59.19 186.13L59.1 186.19C58.5186 186.535 58.0368 187.025 57.702 187.612C57.3671 188.2 57.1907 188.864 57.19 189.54V191.81C57.19 192.078 57.2625 192.342 57.3997 192.572C57.537 192.803 57.7341 192.992 57.97 193.12C58.187 193.23 58.4266 193.288 58.67 193.29C58.9655 193.292 59.2548 193.205 59.5 193.04C59.5901 192.979 59.6543 192.886 59.68 192.78L58.86 192.27Z" fill="white"/>
<path d="M111.34 182.95L85.48 197.88L51.82 178.45L77.69 163.52L111.34 182.95Z" fill="#E6E6E6"/>
<path d="M112.83 182.46L85.81 195.18L53.89 172.99L80.92 160.28L112.83 182.46Z" fill="#FAFAFA"/>
<path d="M52.5 142.75H30.55L32.55 165.98C32.6798 166.716 32.9859 167.41 33.4422 168.002C33.8985 168.594 34.4913 169.067 35.17 169.38C37.1464 170.386 39.3325 170.91 41.55 170.91C43.7675 170.91 45.9536 170.386 47.93 169.38C48.6072 169.065 49.1988 168.591 49.6548 168C50.1107 167.408 50.4178 166.715 50.55 165.98L52.5 142.75Z" fill="#457B9D"/>
<path d="M53.9 141.48V139.64H53.47C52.7604 138.271 51.6466 137.154 50.28 136.44C45.45 133.65 37.61 133.65 32.78 136.44C31.411 137.151 30.2964 138.269 29.59 139.64H29.15V141.5C29.15 143.32 30.36 145.15 32.78 146.55C37.61 149.34 45.45 149.34 50.28 146.55C52.7 145.15 53.91 143.31 53.9 141.48Z" fill="#E0E0E0"/>
<path d="M50.28 144.8C45.45 147.59 37.61 147.59 32.78 144.8C27.95 142.01 27.94 137.49 32.78 134.7C37.62 131.91 45.45 131.9 50.28 134.7C55.11 137.5 55.11 142 50.28 144.8Z" fill="#EBEBEB"/>
<path d="M51.45 139V137.53H51.1C50.5306 136.433 49.6366 135.539 48.54 134.97C46.3707 133.869 43.9725 133.296 41.54 133.296C39.1075 133.296 36.7092 133.869 34.54 134.97C33.4403 135.535 32.5451 136.43 31.98 137.53H31.63V139C31.63 140.47 32.63 141.94 34.54 143.05C36.7092 144.151 39.1075 144.724 41.54 144.724C43.9725 144.724 46.3707 144.151 48.54 143.05C50.48 141.92 51.45 140.45 51.45 139Z" fill="#E0E0E0"/>
<path d="M48.54 141.64C46.3707 142.741 43.9725 143.314 41.54 143.314C39.1075 143.314 36.7092 142.741 34.54 141.64C30.66 139.41 30.66 135.78 34.54 133.55C36.7092 132.449 39.1075 131.876 41.54 131.876C43.9725 131.876 46.3707 132.449 48.54 133.55C52.41 135.78 52.41 139.41 48.54 141.64Z" fill="#F5F5F5"/>
<path d="M46.92 140.46C45.248 141.308 43.3997 141.75 41.525 141.75C39.6503 141.75 37.802 141.308 36.13 140.46C33.24 138.8 33.13 136.14 35.83 134.46C35.9254 134.39 36.0256 134.326 36.13 134.27C36.7846 133.897 37.4834 133.608 38.21 133.41C41.1181 132.59 44.2285 132.897 46.92 134.27C49.91 136 49.91 138.74 46.92 140.46Z" fill="#F0F0F0"/>
<path d="M36.13 135.12C37.8024 134.267 39.6529 133.823 41.53 133.823C43.4071 133.823 45.2576 134.267 46.93 135.12C47.4713 135.373 47.949 135.744 48.328 136.206C48.707 136.669 48.9776 137.21 49.12 137.79C49.35 136.52 48.61 135.2 46.93 134.23C45.255 133.386 43.4056 132.946 41.53 132.946C39.6544 132.946 37.805 133.386 36.13 134.23C34.44 135.23 33.71 136.52 33.93 137.79C34.0735 137.209 34.3456 136.667 34.7264 136.205C35.1072 135.743 35.5868 135.372 36.13 135.12Z" fill="#E0E0E0"/>
<path d="M40.21 135.41L38 136.82L35.84 135.27V134.42C35.9353 134.35 36.0356 134.286 36.14 134.23C36.7946 133.857 37.4934 133.568 38.22 133.37V134L40.21 135.41Z" fill="#E0E0E0"/>
</svg>
