<svg width="77" height="106" viewBox="0 0 77 106" fill="none" xmlns="http://www.w3.org/2000/svg">
<path d="M38.88 65C38.88 65 23.66 50.13 32.32 25.23C37.17 11.28 53.26 1.03001 62.42 0.0700073C59.3873 3.67325 56.9683 7.75109 55.26 12.14L43.72 19.81L54.33 16.49L52.07 25.57C52.07 25.57 42.21 31.57 40.75 32.83L51.38 30C51.38 30 50.56 55.72 38.88 65Z" fill="#457B9D"/>
<path opacity="0.4" d="M38.88 65C38.88 65 23.66 50.13 32.32 25.23C37.17 11.28 53.26 1.03001 62.42 0.0700073C59.3873 3.67325 56.9683 7.75109 55.26 12.14L43.72 19.81L54.33 16.49L52.07 25.57C52.07 25.57 42.21 31.57 40.75 32.83L51.38 30C51.38 30 50.56 55.72 38.88 65Z" fill="black"/>
<path d="M38.88 65C38.88 65 31 33.89 42.66 15.75C42.66 15.71 29 31.72 38.88 65Z" fill="white"/>
<path d="M56.3 69.17L37.67 68.93H37.48L18.86 69.17C18.86 69.17 18.65 92.11 25.72 101.44C27.72 103.93 32.25 105.67 37.58 105.67C42.91 105.67 47.5 103.92 49.45 101.43C56.5 92.09 56.3 69.17 56.3 69.17Z" fill="#37474F"/>
<path d="M37.58 79.22C47.9188 79.22 56.3 74.7205 56.3 69.17C56.3 63.6196 47.9188 59.12 37.58 59.12C27.2412 59.12 18.86 63.6196 18.86 69.17C18.86 74.7205 27.2412 79.22 37.58 79.22Z" fill="#455A64"/>
<path d="M37.58 66.5C44.02 66.5 49.47 68.57 51.39 71.43C51.8636 70.7703 52.1252 69.982 52.14 69.17C52.14 65.17 45.62 61.98 37.58 61.98C29.54 61.98 23 65.2 23 69.17C23.0168 69.9801 23.2744 70.7669 23.74 71.43C25.68 68.57 31.14 66.5 37.58 66.5Z" fill="#263238"/>
<path d="M37.58 76.36C45.207 76.36 51.39 74.1528 51.39 71.43C51.39 68.7072 45.207 66.5 37.58 66.5C29.9529 66.5 23.77 68.7072 23.77 71.43C23.77 74.1528 29.9529 76.36 37.58 76.36Z" fill="#E0E0E0"/>
<path d="M37.81 72.67C37.81 72.67 30.59 72.39 24.41 62.81C21.85 58.86 20.62 56.81 20.62 56.81L30.62 56.06L19.36 53.25L14.04 45.11L23.39 44.41C23.39 44.41 16.39 41.97 11.46 41.94C11.46 41.94 2.83 26.71 0.309998 24.54C6.83139 24.9406 13.2063 26.6444 19.0581 29.5505C24.9099 32.4566 30.1198 36.5062 34.38 41.46C48.6 58.19 39.91 73.1 37.81 72.67Z" fill="#457B9D"/>
<path d="M37.81 72.67C37.81 72.67 42.32 45.49 13.53 29.15C13.53 29.15 43.41 43.5 37.81 72.67Z" fill="white"/>
<path d="M37.81 72.67C37.81 72.67 44.34 73.09 50.81 65.03C53.48 61.71 54.81 59.95 54.81 59.95L45.81 58.33L56.23 56.85L61.8 50L53.43 48.49C53.43 48.49 59.94 46.95 64.43 47.39C64.43 47.39 73.65 34.45 76.13 32.73C70.208 32.4799 64.296 33.4192 58.7432 35.4923C53.1903 37.5654 48.1092 40.7303 43.8 44.8C29.43 58.59 35.87 72.86 37.81 72.67Z" fill="#457B9D"/>
<path opacity="0.2" d="M37.81 72.67C37.81 72.67 44.34 73.09 50.81 65.03C53.48 61.71 54.81 59.95 54.81 59.95L45.81 58.33L56.23 56.85L61.8 50L53.43 48.49C53.43 48.49 59.94 46.95 64.43 47.39C64.43 47.39 73.65 34.45 76.13 32.73C70.208 32.4799 64.296 33.4192 58.7432 35.4923C53.1903 37.5654 48.1092 40.7303 43.8 44.8C29.43 58.59 35.87 72.86 37.81 72.67Z" fill="black"/>
<path d="M37.81 72.67C37.81 72.67 36.29 47.73 63.81 35.67C63.81 35.69 35.5 45.83 37.81 72.67Z" fill="white"/>
</svg>
