<svg width="329" height="161" viewBox="0 0 329 161" fill="none" xmlns="http://www.w3.org/2000/svg">
<path d="M25.58 92.98C39.1828 92.98 50.21 86.6135 50.21 78.76C50.21 70.9065 39.1828 64.54 25.58 64.54C11.9772 64.54 0.950012 70.9065 0.950012 78.76C0.950012 86.6135 11.9772 92.98 25.58 92.98Z" fill="#E6E6E6"/>
<path d="M215.26 2.53L53.38 96C52.7548 96.3459 52.2337 96.853 51.8708 97.4685C51.5079 98.084 51.3165 98.7855 51.3165 99.5C51.3165 100.215 51.5079 100.916 51.8708 101.531C52.2337 102.147 52.7548 102.654 53.38 103L148.52 157.93C150.911 159.311 153.624 160.037 156.385 160.037C159.146 160.037 161.859 159.311 164.25 157.93L326.13 64.47C326.755 64.1241 327.276 63.617 327.639 63.0015C328.002 62.386 328.194 61.6845 328.194 60.97C328.194 60.2555 328.002 59.554 327.639 58.9385C327.276 58.323 326.755 57.8159 326.13 57.47L231 2.53C228.608 1.14755 225.893 0.419678 223.13 0.419678C220.367 0.419678 217.652 1.14755 215.26 2.53Z" fill="#E6E6E6"/>
<path d="M166.65 3.44L101.85 40.86C100.548 41.6097 99.4659 42.6893 98.7137 43.9902C97.9615 45.2911 97.5655 46.7673 97.5655 48.27C97.5655 49.7727 97.9615 51.2489 98.7137 52.5497C99.4659 53.8506 100.548 54.9303 101.85 55.68L134.48 74.52C136.64 75.7634 139.088 76.4178 141.58 76.4178C144.072 76.4178 146.52 75.7634 148.68 74.52L213.49 37.1C214.79 36.3483 215.869 35.2679 216.619 33.9673C217.37 32.6666 217.765 31.1915 217.765 29.69C217.765 28.1885 217.37 26.7134 216.619 25.4128C215.869 24.1121 214.79 23.0317 213.49 22.28L180.85 3.44C178.692 2.19173 176.243 1.53445 173.75 1.53445C171.257 1.53445 168.808 2.19173 166.65 3.44Z" fill="#E6E6E6"/>
</svg>
