<svg width="61" height="138" viewBox="0 0 61 138" fill="none" xmlns="http://www.w3.org/2000/svg">
<path d="M45.91 63.4V113.08L2.88 137.92V88.24L45.91 63.4Z" fill="#FAFAFA"/>
<path d="M41.25 66.09V110.39L2.88001 132.54V88.24L41.25 66.09ZM43.58 62.09L0.580017 86.93V136.61L2.91002 137.96L45.91 113.12V63.4L43.58 62.05V62.09Z" fill="#E0E0E0"/>
<path d="M43.58 67.43V111.73L5.21003 133.88V89.58L43.58 67.43ZM45.91 63.43L2.91003 88.27V137.95L45.91 113.11V63.4V63.43Z" fill="#EBEBEB"/>
<path d="M39.59 101.71L7.04001 120.5L16.66 95.49L23.32 103.39L30.13 93.7L39.59 101.71Z" fill="#E0E0E0"/>
<path d="M28.3 86.1C28.2413 87.1341 27.939 88.1397 27.4176 89.0348C26.8962 89.9298 26.1706 90.6888 25.3 91.25C23.66 92.19 22.3 91.43 22.3 89.53C22.3602 88.4976 22.6633 87.494 23.1846 86.6008C23.7059 85.7077 24.4307 84.9502 25.3 84.39C27 83.44 28.3 84.21 28.3 86.1Z" fill="#E0E0E0"/>
<path d="M60.26 1.55V41.12L25.99 60.91V21.33L60.26 1.55Z" fill="#FAFAFA"/>
<path d="M56.55 3.69V39L26 56.63V21.33L56.56 3.69M58.42 0.470001L24.13 20.26V59.84L25.99 60.91L60.26 41.12V1.54L58.41 0.470001H58.42Z" fill="#E0E0E0"/>
<path d="M58.41 4.76001V40.05L27.84 57.7V22.4L58.41 4.76001ZM60.26 1.54001L26 21.33V60.91L60.27 41.12V1.54001H60.26Z" fill="#EBEBEB"/>
<path d="M55.23 32.07L29.3 47.04L36.96 27.11L42.27 33.41L47.69 25.68L55.23 32.07Z" fill="#E0E0E0"/>
<path d="M46.24 19.63C46.1962 20.4518 45.9586 21.2517 45.5467 21.9642C45.1348 22.6768 44.5603 23.2818 43.87 23.73C42.56 24.49 41.51 23.87 41.51 22.37C41.552 21.5488 41.7877 20.7493 42.1978 20.0367C42.608 19.3241 43.181 18.7187 43.87 18.27C45.18 17.51 46.24 18.13 46.24 19.63Z" fill="#E0E0E0"/>
</svg>
